<?xml version="1.0" encoding="UTF-8"?>
<svg width="30px" height="30px" viewBox="0 0 30 30" version="1.1" xmlns="http://www.w3.org/2000/svg" xmlns:xlink="http://www.w3.org/1999/xlink">
    <!-- Generator: Sketch 52.5 (67469) - http://www.bohemiancoding.com/sketch -->
    <title>icon-services</title>
    <desc>Created with Sketch.</desc>
    <g id="Web" stroke="none" stroke-width="1" fill="none" fill-rule="evenodd">
        <g id="services" transform="translate(-160.000000, -202.000000)">
            <g transform="translate(160.000000, 202.000000)" id="icon-services">
                <g>
                    <path d="M8,15 C8,18.8659932 11.1340068,22 15,22 L15,30 C6.71572875,30 1.01453063e-15,23.2842712 0,15 L8,15 Z" id="Path" fill="#FBBC05"></path>
                    <path d="M15,8 C11.1340068,8 8,11.1340068 8,15 L0,15 C-1.01453063e-15,6.71572875 6.71572875,1.52179594e-15 15,0 L15,8 Z" id="Path" fill="#34A853"></path>
                    <path d="M22,15 C22,11.1340068 18.8659932,8 15,8 L15,0 C23.2842712,-1.52179594e-15 30,6.71572875 30,15 L22,15 Z" id="Path" fill="#EA4335"></path>
                    <path d="M22,15 L30,15 C30,23.2842712 23.2842712,30 15,30 L15,22 C18.8659932,22 22,18.8659932 22,15 Z" id="Path" fill="#4285F4"></path>
                </g>
            </g>
        </g>
    </g>
</svg>