<?xml version="1.0" encoding="UTF-8"?>
<svg width="60px" height="60px" viewBox="0 0 60 60" version="1.1" xmlns="http://www.w3.org/2000/svg" xmlns:xlink="http://www.w3.org/1999/xlink">
    <!-- Generator: Sketch 52.5 (67469) - http://www.bohemiancoding.com/sketch -->
    <title>icon-app</title>
    <desc>Created with Sketch.</desc>
    <g id="Web" stroke="none" stroke-width="1" fill="none" fill-rule="evenodd">
        <g id="index" transform="translate(-738.000000, -1374.000000)">
            <g id="app" transform="translate(738.000000, 1374.000000)">
                <g id="icon-app">
                    <path d="M0,30 L30,30 L30,60 L10,60 C4.4771525,60 -2.87635993e-15,55.5228475 -3.55271368e-15,50 L0,30 Z" id="Rectangle" fill="#FBBC05"></path>
                    <path d="M0,0 L30,0 L30,30 L10,30 C4.4771525,30 -2.87635993e-15,25.5228475 -3.55271368e-15,20 L0,0 Z" id="Rectangle" fill="#34A853" transform="translate(15.000000, 15.000000) scale(1, -1) translate(-15.000000, -15.000000) "></path>
                    <path d="M30,0 L60,0 L60,30 L40,30 C34.4771525,30 30,25.5228475 30,20 L30,0 Z" id="Rectangle" fill="#EA4335" transform="translate(45.000000, 15.000000) scale(-1, -1) translate(-45.000000, -15.000000) "></path>
                    <path d="M30,30 L60,30 L60,60 L40,60 C34.4771525,60 30,55.5228475 30,50 L30,30 Z" id="Rectangle" fill="#4285F4" transform="translate(45.000000, 45.000000) scale(-1, 1) translate(-45.000000, -45.000000) "></path>
                </g>
            </g>
        </g>
    </g>
</svg>