<?xml version="1.0" encoding="UTF-8"?>
<svg width="28px" height="28px" viewBox="0 0 28 28" version="1.1" xmlns="http://www.w3.org/2000/svg" xmlns:xlink="http://www.w3.org/1999/xlink">
    <!-- Generator: Sketch 52.5 (67469) - http://www.bohemiancoding.com/sketch -->
    <title>btn-call</title>
    <desc>Created with Sketch.</desc>
    <g id="Mobile" stroke="none" stroke-width="1" fill="none" fill-rule="evenodd">
        <g id="index" transform="translate(-272.000000, -8.000000)">
            <g id="top-menu">
                <g id="btn-call" transform="translate(272.000000, 8.000000)">
                    <path d="M14,27 C21.1797017,27 27,21.1797017 27,14 C27,6.82029825 21.1797017,1 14,1 C6.82029825,1 1,6.82029825 1,14 C1,21.1797017 6.82029825,27 14,27 Z" id="Oval-24" stroke="#4285F4" stroke-width="2"></path>
                    <path d="M11.2263033,9.6621335 C9.64794394,7.2126351 8.99734389,6.36544431 8.99734389,6.36544431 C8.99734389,6.36544431 6.9269895,5.93040845 6.21616349,8.26284928 C6.20937185,8.29629431 5.6970019,10.4197035 8.12801281,13.7659598 C9.0439366,15.0325651 11.6553394,18.2710997 15.3005441,20.549043 C16.1113469,21.0557259 19.872048,23.2457992 21.5037418,20.4079779 C21.5012322,20.4067267 21.7264678,20.0402833 21.8157831,19.5990636 C21.9017523,19.1207826 21.6439444,18.9950511 21.6439444,18.9950511 C21.6439444,18.9950511 18.5672266,16.9047363 18.567227,16.9047366 C18.5672273,16.904737 17.765363,16.2354351 17.0946878,16.9047363 C17.1109651,16.9405995 16.5506568,17.3531399 16.1302737,17.5338835 C15.7098906,17.7146271 15.1511743,17.5340373 15.1576695,17.5338835 C12.6100519,15.9799909 10.6590507,13.0430361 10.6590507,13.0430361 C10.6590507,13.0430361 10.2520013,12.3074456 10.7124351,11.5043642 C10.6924597,11.390611 11.6050376,10.4886965 11.2263033,9.6621335 Z" id="Path-57" fill="#4285F4"></path>
                </g>
            </g>
        </g>
    </g>
</svg>