<?xml version="1.0" encoding="UTF-8"?>
<svg width="193px" height="193px" viewBox="0 0 193 193" version="1.1" xmlns="http://www.w3.org/2000/svg" xmlns:xlink="http://www.w3.org/1999/xlink">
    <!-- Generator: Sketch 52.5 (67469) - http://www.bohemiancoding.com/sketch -->
    <title>Group 4</title>
    <desc>Created with Sketch.</desc>
    <g id="Web" stroke="none" stroke-width="1" fill="none" fill-rule="evenodd">
        <g id="index" transform="translate(-624.000000, -2749.000000)" fill="#FBBC05">
            <g id="review" transform="translate(160.000000, 2749.000000)">
                <g id="photo" transform="translate(464.000000, 0.000000)">
                    <g id="Group-4">
                        <path d="M96.5,193 C96.5,168.181655 96.5,136.014988 96.5,96.5 C51.3122701,96.5 19.1456034,96.5 7.10542736e-15,96.5 C7.10542736e-15,149.795478 43.2045216,193 96.5,193 Z" id="Oval"></path>
                        <path d="M193,96.5 C193,71.6816549 193,39.5149882 193,3.55271368e-14 C147.81227,3.55271368e-14 115.645603,3.55271368e-14 96.5,3.55271368e-14 C96.5,53.2954784 139.704522,96.5 193,96.5 Z" id="Oval" transform="translate(144.750000, 48.250000) scale(-1, -1) translate(-144.750000, -48.250000) "></path>
                    </g>
                </g>
            </g>
        </g>
    </g>
</svg>