<?xml version="1.0" encoding="UTF-8"?>
<svg width="328px" height="64px" viewBox="0 0 328 64" version="1.1" xmlns="http://www.w3.org/2000/svg" xmlns:xlink="http://www.w3.org/1999/xlink">
    <!-- Generator: Sketch 52.5 (67469) - http://www.bohemiancoding.com/sketch -->
    <title>logo</title>
    <desc>Created with Sketch.</desc>
    <g id="Web" stroke="none" stroke-width="1" fill="none" fill-rule="evenodd">
        <g id="index" transform="translate(-930.000000, -3863.000000)" fill="#BBBBBB">
            <g id="maps" transform="translate(0.000000, 3758.000000)">
                <g id="adress" transform="translate(928.000000, 105.000000)">
                    <g id="logo" transform="translate(2.000000, 0.000000)">
                        <g id="Group">
                            <circle id="Oval-2" cx="32" cy="15" r="6"></circle>
                            <path d="M24.7999638,30 L30,30 L30,24.7999638 C25.4355194,23.8734231 22,19.8379158 22,15 C22,10.1620842 25.4355194,6.1265769 30,5.20003623 L30,0 L23,0 C23,4.418278 19.418278,8 15,8 C10.581722,8 7,4.418278 7,0 L0,0 L0,7 C4.418278,7 8,10.581722 8,15 C8,19.418278 4.418278,23 0,23 L0,30 L5.20003623,30 C6.1265769,25.4355194 10.1620842,22 15,22 C19.8379158,22 23.8734231,25.4355194 24.7999638,30 Z" id="Combined-Shape"></path>
                            <circle id="Oval-2" transform="translate(49.000000, 32.000000) rotate(90.000000) translate(-49.000000, -32.000000) " cx="49" cy="32" r="6"></circle>
                            <path d="M34,24.7999638 L34,30 L39.2000362,30 C40.1265769,25.4355194 44.1620842,22 49,22 C53.8379158,22 57.8734231,25.4355194 58.7999638,30 L64,30 L64,23 C59.581722,23 56,19.418278 56,15 C56,10.581722 59.581722,7 64,7 L64,0 L57,0 C57,4.418278 53.418278,8 49,8 C44.581722,8 41,4.418278 41,0 L34,0 L34,5.20003623 C38.5644806,6.1265769 42,10.1620842 42,15 C42,19.8379158 38.5644806,23.8734231 34,24.7999638 Z" id="Combined-Shape"></path>
                            <path d="M34,39.2000362 L34,34 L39.2000362,34 C40.1217772,38.5408356 44.1203579,41.9643762 48.9248804,41.9997237 C48.9499018,41.9998848 48.9749374,42 49,42 C49.0250626,42 49.0500982,41.9998848 49.0751064,41.9996548 C53.8796421,41.9643762 57.8782228,38.5408356 58.7999638,34 L64,34 L64,41 C59.581722,41 56,44.581722 56,49 C56,53.418278 59.581722,57 64,57 L64,64 L57,64 C57,59.581722 53.418278,56 49,56 C44.581722,56 41,59.581722 41,64 L34,64 L34,58.7999638 C38.5408356,57.8782228 41.9643762,53.8796421 41.9997237,49.0751196 C41.9998848,49.0500982 42,49.0250626 42,49 C42,48.9749374 41.9998848,48.9499018 41.9996548,48.9248936 C41.9643762,44.1203579 38.5408356,40.1217772 34,39.2000362 Z" id="Combined-Shape"></path>
                            <path d="M30,39.2000362 C25.4591644,40.1217772 22.0356238,44.1203579 22.0002763,48.9248804 C22.0001152,48.9499018 22,48.9749374 22,49 C22,49.0250626 22.0001152,49.0500982 22.0003452,49.0751064 C22.0356238,53.8796421 25.4591644,57.8782228 30,58.7999638 L30,64 L23,64 C23,59.581722 19.418278,56 15,56 C10.581722,56 7,59.581722 7,64 L-1.77635684e-15,64 L-1.34773046e-15,57 C4.418278,57 8,53.418278 8,49 C8,44.581722 4.418278,41 -3.6801302e-16,41 L6.06133593e-17,34 L5.20003623,34 C6.12177721,38.5408356 10.1203579,41.9643762 14.9248804,41.9997237 C14.9499018,41.9998848 14.9749374,42 15,42 C15.0250626,42 15.0500982,41.9998848 15.0751064,41.9996548 C19.8796421,41.9643762 23.8782228,38.5408356 24.7999638,34 L30,34 L30,39.2000362 Z" id="Combined-Shape"></path>
                            <circle id="Oval-2" transform="translate(15.000000, 32.000000) rotate(-90.000000) translate(-15.000000, -32.000000) " cx="15" cy="32" r="6"></circle>
                            <circle id="Oval-2" transform="translate(32.000000, 49.000000) rotate(-180.000000) translate(-32.000000, -49.000000) " cx="32" cy="49" r="6"></circle>
                        </g>
                        <g id="cratizer" transform="translate(84.000000, 4.000000)">
                            <path d="M224.57,31.37 C224.57,32.67 224.505,33.45 224.245,34.685 L196.36,34.685 C197.4,39.04 201.17,41.77 206.305,41.77 C209.88,41.77 212.025,40.795 214.235,38.195 L223.66,38.195 C221.255,45.605 213.78,49.7 206.5,49.7 C195.515,49.7 187,41.51 187,30.98 C187,20.385 195.385,12 205.98,12 C216.705,12 224.57,20.19 224.57,31.37 Z M216.055,27.08 C214.95,22.465 211.44,19.93 206.11,19.93 C200.975,19.93 197.465,22.465 196.1,27.08 L216.055,27.08 Z" id="Combined-Shape" transform="translate(205.785000, 30.850000) rotate(-22.000000) translate(-205.785000, -30.850000) "></path>
                            <polygon id="Path" points="190.43 49 190.43 41.265 173.335 41.265 189.195 20.725 189.195 12.99 163 12.99 163 20.725 178.86 20.725 163 41.265 163 49"></polygon>
                            <path d="M144.055,20.855 L149.255,20.855 L149.255,12.99 L144.055,12.99 L144.055,0.965 L135.41,0.965 L135.41,12.99 L128.185,12.99 L128.185,20.855 L135.41,20.855 L135.41,40.9912534 C135.41,45.414362 138.989358,49 143.413432,49 L152,49 L152,41 L146.059859,41 C144.952606,41 144.055,40.1084013 144.055,38.9947716 L144.055,20.855 Z" id="Combined-Shape"></path>
                            <path d="M155.9975,9.78501465 C153.615107,9.78501465 151.675,7.84976548 151.675,5.46251465 C151.675,3.08012139 153.610249,1.14001465 155.9975,1.14001465 C158.379893,1.14001465 160.32,3.07526382 160.32,5.46251465 C160.32,7.8449079 158.384751,9.78501465 155.9975,9.78501465 Z M160.255,49 L151.61,49 L151.61,12.99 L160.255,12.99 L160.255,49 Z" id="Combined-Shape"></path>
                            <path d="M128.675,49 L120.745,49 L120.745,44.32 C117.3,48.22 113.855,49.845 108.785,49.845 C98.255,49.845 90.65,41.98 90.65,31.125 C90.65,20.14 98.32,12.145 108.98,12.145 C114.18,12.145 117.755,13.835 120.745,17.8 L120.745,12.99 L128.675,12.99 L128.675,49 Z M120.485,31.255 C120.485,24.69 116.065,20.075 109.89,20.075 C103.715,20.075 99.36,24.755 99.36,31.32 C99.36,37.625 103.715,41.915 110.02,41.915 C116.585,41.915 120.485,37.235 120.485,31.255 Z" id="Combined-Shape"></path>
                            <path d="M90.62,31.515 C90.62,32.815 90.555,33.595 90.295,34.83 L62.41,34.83 C63.45,39.185 67.22,41.915 72.355,41.915 C75.93,41.915 78.075,40.94 80.285,38.34 L89.71,38.34 C87.305,45.75 79.83,49.845 72.55,49.845 C61.565,49.845 53.05,41.655 53.05,31.125 C53.05,20.53 61.435,12.145 72.03,12.145 C82.755,12.145 90.62,20.335 90.62,31.515 Z M82.105,27.225 C81,22.61 77.49,20.075 72.16,20.075 C67.025,20.075 63.515,22.61 62.15,27.225 L82.105,27.225 Z" id="Combined-Shape" transform="translate(71.835000, 30.995000) rotate(-22.000000) translate(-71.835000, -30.995000) "></path>
                            <path d="M56.3123779,20.32 L56.3123779,12 L53.73,12 C50.025,12 48.205,13.04 45.93,16.355 L45.93,12.845 L38,12.845 L38,48.855 L46.645,48.855 L46.645,28.835 C46.645,23.245 49.0311817,20.5020299 56.3123779,20.32 Z" id="Path"></path>
                            <path d="M243.312378,20.32 L243.312378,12 L240.73,12 C237.025,12 235.205,13.04 232.93,16.355 L232.93,12.845 L225,12.845 L225,48.855 L233.645,48.855 L233.645,28.835 C233.645,23.245 236.031182,20.5020299 243.312378,20.32 Z" id="Path"></path>
                            <path d="M38.065,37.17 L28.315,37.17 C26.17,40.485 23.7,41.915 20.125,41.915 C14.145,41.915 9.66,37.235 9.66,30.93 C9.66,24.625 13.95,20.075 19.93,20.075 C23.83,20.075 26.56,21.7 28.315,25.015 L38.065,25.015 C35.27,16.76 28.12,12.145 19.93,12.145 C9.27,12.145 0.95,20.4 0.95,30.995 C0.95,41.46 9.53,49.845 20.19,49.845 C28.575,49.845 35.075,45.23 38.065,37.17 Z" id="creatize"></path>
                        </g>
                    </g>
                </g>
            </g>
        </g>
    </g>
</svg>