<?xml version="1.0" encoding="UTF-8"?>
<svg width="445px" height="445px" viewBox="0 0 445 445" version="1.1" xmlns="http://www.w3.org/2000/svg" xmlns:xlink="http://www.w3.org/1999/xlink">
    <!-- Generator: Sketch 52.5 (67469) - http://www.bohemiancoding.com/sketch -->
    <title>logo-big</title>
    <desc>Created with Sketch.</desc>
    <g id="Web" stroke="none" stroke-width="1" fill="none" fill-rule="evenodd">
        <g id="index" transform="translate(-160.000000, -809.000000)">
            <g id="logo-big" transform="translate(160.000000, 809.000000)">
                <circle id="Oval-2" fill="#34A853" cx="222.5" cy="104.296875" r="41.71875"></circle>
                <path d="M172.437248,208.59375 L208.59375,208.59375 L208.59375,172.437248 C176.856346,165.994895 152.96875,137.935508 152.96875,104.296875 C152.96875,70.6582416 176.856346,42.598855 208.59375,36.1565019 L208.59375,0 L159.921875,0 C159.921875,30.7208392 135.017714,55.625 104.296875,55.625 C73.5760358,55.625 48.671875,30.7208392 48.671875,0 L0,0 L0,48.671875 C30.7208392,48.671875 55.625,73.5760358 55.625,104.296875 C55.625,135.017714 30.7208392,159.921875 0,159.921875 L0,208.59375 L36.1565019,208.59375 C42.598855,176.856346 70.6582416,152.96875 104.296875,152.96875 C137.935508,152.96875 165.994895,176.856346 172.437248,208.59375 Z" id="Combined-Shape" fill="#34A853"></path>
                <circle id="Oval-2" fill="#EA4335" transform="translate(340.703125, 222.500000) rotate(90.000000) translate(-340.703125, -222.500000) " cx="340.703125" cy="222.5" r="41.71875"></circle>
                <path d="M236.40625,172.437248 L236.40625,208.59375 L272.562752,208.59375 C279.005105,176.856346 307.064492,152.96875 340.703125,152.96875 C374.341758,152.96875 402.401145,176.856346 408.843498,208.59375 L445,208.59375 L445,159.921875 C414.279161,159.921875 389.375,135.017714 389.375,104.296875 C389.375,73.5760358 414.279161,48.671875 445,48.671875 L445,0 L396.328125,0 C396.328125,30.7208392 371.423964,55.625 340.703125,55.625 C309.982286,55.625 285.078125,30.7208392 285.078125,0 L236.40625,0 L236.40625,36.1565019 C268.143654,42.598855 292.03125,70.6582416 292.03125,104.296875 C292.03125,137.935508 268.143654,165.994895 236.40625,172.437248 Z" id="Combined-Shape" fill="#EA4335"></path>
                <path d="M236.40625,272.562752 L236.40625,236.40625 L272.562752,236.40625 C278.991197,268.075137 306.943438,291.928072 340.485337,292.030916 C340.557911,292.031111 340.630502,292.03125 340.703125,292.03125 C340.775748,292.03125 340.848339,292.031111 340.920898,292.030833 C374.462812,291.928072 402.415053,268.075137 408.843498,236.40625 L445,236.40625 L445,285.078125 C414.279161,285.078125 389.375,309.982286 389.375,340.703125 C389.375,371.423964 414.279161,396.328125 445,396.328125 L445,445 L396.328125,445 C396.328125,414.279161 371.423964,389.375 340.703125,389.375 C309.982286,389.375 285.078125,414.279161 285.078125,445 L236.40625,445 L236.40625,408.843498 C268.075137,402.415053 291.928072,374.462812 292.030916,340.920913 C292.031111,340.848339 292.03125,340.775748 292.03125,340.703125 C292.03125,340.630502 292.031111,340.557911 292.030833,340.485352 C291.928072,306.943438 268.075137,278.991197 236.40625,272.562752 Z" id="Combined-Shape" fill="#4285F4"></path>
                <path d="M208.59375,272.562752 C176.924863,278.991197 153.071928,306.943438 152.969084,340.485337 C152.968889,340.557911 152.96875,340.630502 152.96875,340.703125 C152.96875,340.775748 152.968889,340.848339 152.969167,340.920898 C153.071928,374.462812 176.924863,402.415053 208.59375,408.843498 L208.59375,445 L159.921875,445 C159.921875,414.279161 135.017714,389.375 104.296875,389.375 C73.5760358,389.375 48.671875,414.279161 48.671875,445 L0,445 L2.9802928e-15,396.328125 C30.7208392,396.328125 55.625,371.423964 55.625,340.703125 C55.625,309.982286 30.7208392,285.078125 9.79239062e-15,285.078125 L1.27726834e-14,236.40625 L36.1565019,236.40625 C42.5849467,268.075137 70.537188,291.928072 104.079087,292.030916 C104.151661,292.031111 104.224252,292.03125 104.296875,292.03125 C104.369498,292.03125 104.442089,292.031111 104.514648,292.030833 C138.056562,291.928072 166.008803,268.075137 172.437248,236.40625 L208.59375,236.40625 L208.59375,272.562752 Z" id="Combined-Shape" fill="#FBBC05"></path>
                <circle id="Oval-2" fill="#FBBC05" transform="translate(104.296875, 222.500000) rotate(-90.000000) translate(-104.296875, -222.500000) " cx="104.296875" cy="222.5" r="41.71875"></circle>
                <circle id="Oval-2" fill="#4285F4" transform="translate(222.500000, 340.703125) rotate(-180.000000) translate(-222.500000, -340.703125) " cx="222.5" cy="340.703125" r="41.71875"></circle>
            </g>
        </g>
    </g>
</svg>